# xmcd
#
# Track frame offsets: 
#        150
#        19655
#        34754
#        52978
#        79345
#        101581
#        123833
#        142548
#        168071
#        190987
#        218137
#
# Disc length: 3258 seconds
#
# Revision: 0
# Processed by: cddbd v1.5.2PL0 Copyright (c) Steve Scherf et al.
# Submitted via: ExactAudioCopy v0.95b4
#
DISCID=830cb80b
DTITLE=Gillian Welch and David Rawlings - Strawberry Music Festival Sept
DTITLE=4, 1999 - Disk 2
DYEAR=1999
DGENRE=Bluegrass
TTITLE0=Tear My Stillhouse Down
TTITLE1=Winter's Come and Gone
TTITLE2=The Road From Lexington
TTITLE3=Paper Wings
TTITLE4=Diamond Joe
TTITLE5=Miner's Refrain
TTITLE6=Acony Bell
TTITLE7=Rank Strangers
TTITLE8=Red Clay Halo
TTITLE9=Long Black Veil
TTITLE10=White Freightliner
EXTD=
EXTT0=
EXTT1=
EXTT2=
EXTT3=
EXTT4=
EXTT5=
EXTT6=
EXTT7=
EXTT8=
EXTT9=
EXTT10=
PLAYORDER=
